<?xml version="1.0" standalone="no"?>
<!DOCTYPE svg PUBLIC "-//W3C//DTD SVG 20010904//EN"
 "http://www.w3.org/TR/2001/REC-SVG-20010904/DTD/svg10.dtd">
<svg version="1.0" xmlns="http://www.w3.org/2000/svg"
 width="152.000000pt" height="152.000000pt" viewBox="0 0 152.000000 152.000000"
 preserveAspectRatio="xMidYMid meet">
<metadata>
Created by potrace 1.11, written by Peter Selinger 2001-2013
</metadata>
<g transform="translate(0.000000,152.000000) scale(0.100000,-0.100000)"
fill="#000000" stroke="none">
<path d="M602 1444 c-230 -48 -435 -212 -531 -426 -25 -55 -35 -83 -58 -173
-3 -11 -7 -71 -9 -133 -4 -166 37 -307 129 -442 43 -62 124 -147 173 -181 l42
-29 15 23 c8 12 24 32 35 45 l19 22 342 0 342 0 23 -23 c13 -13 29 -33 35 -46
l12 -22 46 33 c121 87 240 263 280 418 24 91 23 303 -1 385 -89 293 -307 496
-596 551 -88 17 -209 16 -298 -2z m566 -182 c-2 -16 -12 -31 -25 -37 -13 -5
-27 -23 -33 -38 -9 -27 -6 -34 38 -83 67 -74 120 -174 145 -271 18 -68 25 -83
44 -88 18 -4 23 -13 24 -38 3 -96 -15 -119 -68 -86 -39 24 -39 23 -46 -71 -7
-83 -37 -162 -86 -228 -73 -98 -46 -92 -405 -92 l-315 0 -37 37 c-81 83 -134
204 -134 308 0 60 -14 73 -47 43 -17 -16 -25 -18 -42 -9 -18 10 -21 21 -21 71
0 54 2 60 24 66 19 4 25 16 36 62 81 370 442 570 759 422 l64 -30 23 21 c13
12 23 24 22 28 -3 26 5 43 25 50 33 13 59 -5 55 -37z"/>
<path d="M620 1099 c-41 -10 -104 -37 -141 -59 -108 -64 -214 -195 -234 -287
-6 -30 -4 -33 17 -32 19 0 30 14 57 72 118 247 413 343 669 219 82 -39 180
-140 217 -224 24 -54 34 -68 53 -68 30 0 28 18 -9 98 -60 128 -225 260 -359
287 -80 16 -195 14 -270 -6z"/>
<path d="M505 846 c-61 -28 -108 -74 -137 -135 -28 -58 -30 -185 -4 -244 22
-51 81 -114 130 -140 38 -20 57 -22 247 -24 229 -3 266 3 333 59 73 60 108
146 101 248 -8 107 -68 195 -163 237 -49 22 -64 23 -255 23 -191 0 -205 -1
-252 -24z m210 -102 c14 -13 25 -30 25 -38 0 -25 -20 -29 -38 -8 -57 64 -158
50 -183 -25 -24 -73 21 -138 96 -138 55 0 74 18 133 123 52 93 88 123 151 124
112 1 188 -126 131 -220 -32 -52 -76 -74 -138 -69 -41 3 -59 10 -82 32 -55 52
-25 78 33 29 25 -21 38 -25 70 -21 130 18 122 207 -9 207 -46 0 -78 -29 -128
-118 -57 -103 -82 -124 -150 -130 -61 -5 -111 23 -138 78 -72 143 110 283 227
174z m184 -328 c8 -10 8 -16 -3 -25 -16 -14 -124 -27 -183 -23 -35 3 -43 7
-43 23 0 17 8 19 78 20 42 1 88 5 102 9 36 11 36 11 49 -4z"/>
</g>
</svg>
